<svg id="Layer_1" data-name="Layer 1" xmlns="http://www.w3.org/2000/svg" viewBox="0 0 667.63 190.91"><defs><style>.cls-1{fill:#fff;}.cls-2{fill:#373435;}.cls-3{fill:#ef145d;}.cls-4{fill:#6b6668;}</style></defs><title>logo_main</title><path class="cls-1" d="M882.57,352.68v.75c0-.26,0-.5,0-.75Z" transform="translate(-349.94 -288.69)"/><path class="cls-1" d="M887.63,348.92v0Z" transform="translate(-349.94 -288.69)"/><path class="cls-2" d="M726,355.41v14l7.66,1v27.2c0,3.6.43,7.11-.31,10.65-1,5-5.72,4.65-9.77,4.57v15.25h43.92V412.91c-2.15,0-5.74.29-7.74-2.34-1.71-2.24-1.06-8.16-1.06-10.71q0-12.44,0-24.86c4.94-4.72,15-9.25,20.38-7,4.67,2,4.11,11.19,4.16,15.78.08,7.71,0,24.24-.09,25.55-.12,3.1-7.42,3.63-9.36,3.58v15.17h46.5V412.91c.2.08-7.36.17-10.09-.71-2.9-.94-2.5-7.22-2.51-10.45-.05-10.58.5-21.26.09-31.83-.42-10.9-7-18.43-17.82-20a39.43,39.43,0,0,0-18.51,1.39A80.67,80.67,0,0,0,756,358.66l-.42-10.16c-3.33,0-10.1.57-10.1.57C738.16,352.82,734.52,355.41,726,355.41Z" transform="translate(-349.94 -288.69)"/><path class="cls-2" d="M472.42,337.75V310.83c-3.34,0-12.19.24-12.19.24-7.28,3.75-10.91,6.34-19.48,6.34v14l7.67,1v65.2c0,3.6.42,7.11-.31,10.65-1,5-6.73,4.65-10.78,4.57v15.25h45.92V412.91c-2.15,0-7.74.29-9.74-2.34-1.7-2.24-1.06-8.16-1.06-10.71,0-8.29,0-54.58,0-62.86Z" transform="translate(-349.94 -288.69)"/><path class="cls-2" d="M863.24,375.75V348.83c-3.33,0-15.19.24-15.19.24-7.28,3.75-8.91,6.34-17.48,6.34v14l7.67,1v27.2c0,3.6.43,7.11-.31,10.65-1,5-5.73,4.65-9.77,4.57v15.25h45.91V412.91c-2.14,0-7.73.29-9.73-2.34-1.71-2.24-1.06-8.16-1.06-10.71q0-12.44,0-24.86Z" transform="translate(-349.94 -288.69)"/><path class="cls-2" d="M1009.89,401.51c-7.54,5.8-16.68,9.86-27,9.15-12-.82-19.33-10-19.33-21.5l52.16.5c.82-23.83-12.64-41.75-36.66-41.75s-43.5,18.15-43.5,40.54c0,25.38,19.47,40.55,43.5,40.55,16,0,30.91-8,38.48-19.95Zm-32.53-38.1c6.95,0,11.67,5.63,12.46,12.88H964.89C965.68,369,970.4,363.41,977.36,363.41Z" transform="translate(-349.94 -288.69)"/><path class="cls-2" d="M675.78,384.43,712,356l.12-.14v-8.73h-39.5V359c4.83-.25,3.37,4,.74,5.83-.53.37-11.4,8.84-11.4,8.84l-2.88-2.25V361.34c0-9.47,0-22.26,0-24.34V310.83c-3.34,0-12.19.24-12.19.24-7.28,3.75-10.91,6.34-19.48,6.34v14l7.67,1v65.2c0,3.6.42,7.11-.31,10.65-1,5-5.73,4.65-9.77,4.57v15.25h41.91V412.91c-2.14,0-4.74.29-6.74-2.34-1.7-2.24-1.06-8.16-1-10.71s0-1.34,0-8.55l22.61,17.3c.88.82,1,1.3,1,1.65.27,3.17-2.73,2.65-6.77,2.57v15.25h39.91V415.79Z" transform="translate(-349.94 -288.69)"/><path class="cls-2" d="M525.74,375.75V348.83c-3.33,0-15.19.24-15.19.24-7.28,3.75-8.91,6.34-17.48,6.34v14l7.67,1v27.2c0,3.6.43,7.11-.31,10.65-1,5-5.73,4.65-9.77,4.57v15.25h45.91V412.91c-2.14,0-7.73.29-9.73-2.34-1.71-2.24-1.06-8.16-1.06-10.71q0-12.44,0-24.86Z" transform="translate(-349.94 -288.69)"/><path class="cls-3" d="M525.53,317.18,497.2,330.8a15.9,15.9,0,1,0,28.33-13.62Z" transform="translate(-349.94 -288.69)"/><path class="cls-3" d="M863.53,317.18,835.2,330.8a15.9,15.9,0,1,0,28.33-13.62Z" transform="translate(-349.94 -288.69)"/><polygon class="cls-2" points="587.58 62.13 556.84 62.2 524.75 62.27 526.56 70.84 526.6 71.03 535.2 72.84 575.03 72.84 584.84 71.16 587.58 62.13"/><path class="cls-4" d="M888.71,479.6a6.71,6.71,0,0,0,.81-.34c14.53-42.79,19-91.28,18.68-115.73H888C894.66,411.1,888.71,479.6,888.71,479.6Z" transform="translate(-349.94 -288.69)"/><path class="cls-2" d="M888.71,479.6c10.71-5.27,28.48-33.88,32.6-116.07H904.6C905,370,907.83,432,888.71,479.6Z" transform="translate(-349.94 -288.69)"/><polygon class="cls-4" points="579.6 60.22 529.88 60.22 530.84 58.33 578.65 58.33 579.6 60.22"/><path class="cls-2" d="M927,301.73l.2-6.66s-18.08-2.44-22.5-6.38H889l.11,13.81h22.45Z" transform="translate(-349.94 -288.69)"/><path class="cls-2" d="M909.91,335.89l.67-31.39H889.13l.35,40.26,31.71,0,0-4.81C916.3,339.23,909.91,335.89,909.91,335.89Z" transform="translate(-349.94 -288.69)"/><path class="cls-2" d="M422.3,400.3c-6.12,6-13.05,9.83-23,10.25-12,.51-20.17-8-21.24-19.43-1.21-13,6.37-23.14,16.8-24.12,9.06-.84,17.29,5.56,20.1,15.87l13.69-1.28,2.78-27.11L417,352.82l-.21,3.58c-6.81-5.95-16-9-27.15-8-23.92,2.23-41.63,22.12-39.55,44.41,2.36,25.26,23.16,38.56,47.08,36.32,14.28-1.33,27.13-9,34.26-19.72Z" transform="translate(-349.94 -288.69)"/><path class="cls-2" d="M611.3,400.3c-6.12,6-13,9.83-23,10.25-12,.51-20.17-8-21.24-19.43-1.21-13,6.37-23.14,16.8-24.12,9.06-.84,17.29,5.56,20.1,15.87l13.69-1.28,2.78-27.11L606,352.82l-.21,3.58c-6.81-5.95-16-9-27.15-8-23.92,2.23-41.63,22.12-39.55,44.41,2.36,25.26,23.16,38.56,47.08,36.32,14.28-1.33,27.13-9,34.26-19.72Z" transform="translate(-349.94 -288.69)"/></svg>